<?xml version="1.0" encoding="UTF-8" standalone="no"?>
<svg
   width="900px"
   height="900px"
   viewBox="0 0 900 900"
   version="1.1"
   xml:space="preserve"
   id="SVGRoot"
   sodipodi:docname="fondo_foto.svg"
   inkscape:version="1.3.2 (1:1.3.2+202404261509+091e20ef0f)"
   xmlns:inkscape="http://www.inkscape.org/namespaces/inkscape"
   xmlns:sodipodi="http://sodipodi.sourceforge.net/DTD/sodipodi-0.dtd"
   xmlns="http://www.w3.org/2000/svg"
   xmlns:svg="http://www.w3.org/2000/svg"><sodipodi:namedview
   id="namedview1"
   pagecolor="#ffffff"
   bordercolor="#000000"
   borderopacity="0.25"
   inkscape:showpageshadow="2"
   inkscape:pageopacity="0.0"
   inkscape:pagecheckerboard="0"
   inkscape:deskcolor="#d1d1d1"
   inkscape:zoom="0.89777778"
   inkscape:cx="449.44307"
   inkscape:cy="450"
   inkscape:window-width="1920"
   inkscape:window-height="1011"
   inkscape:window-x="0"
   inkscape:window-y="0"
   inkscape:window-maximized="1"
   inkscape:current-layer="SVGRoot" /><defs
   id="defs2" />

<style
   type="text/css"
   id="style1">
g.prefab path {
  vector-effect:non-scaling-stroke;
  -inkscape-stroke:hairline;
  fill: none;
  fill-opacity: 1;
  stroke-opacity: 1;
  stroke: #00349c;
}
</style>
<g
   style="display:none;fill:#ffffff;stroke:#000000;stroke-width:2"
   class="prefab"
   id="g2">
  <path
   d="M 853.57143,50.000001 H 53.571427 V 138.88889 H 853.57143 Z m 0,177.777779 H 53.571427 v 88.88889 H 853.57143 Z m 0,177.77778 H 53.571427 v 88.88889 H 853.57143 Z m 0,177.77777 H 53.571427 v 88.88889 H 853.57143 Z m 0,177.77778 H 53.571427 V 850 H 853.57143 Z M 53.571427,50 V 850 H 142.46032 V 50 Z M 231.34921,50 V 850 H 320.2381 V 50 Z m 177.77778,0 v 800 h 88.88888 V 50 Z m 177.77777,0 v 800 h 88.88889 V 50 Z m 177.77778,0 v 800 h 88.88889 V 50 Z"
   id="path1" />
  <path
   d="M 450,50 A 400,400 0 0 0 50,450 400,400 0 0 0 450,850 400,400 0 0 0 850,450 400,400 0 0 0 450,50 Z m 0,88.88867 A 311.11111,311.11111 0 0 1 761.11133,450 311.11111,311.11111 0 0 1 450,761.11133 311.11111,311.11111 0 0 1 138.88867,450 311.11111,311.11111 0 0 1 450,138.88867 Z m 0,88.88867 A 222.22223,222.22223 0 0 0 227.77734,450 222.22223,222.22223 0 0 0 450,672.22266 222.22223,222.22223 0 0 0 672.22266,450 222.22223,222.22223 0 0 0 450,227.77734 Z m 0,88.88868 A 133.33333,133.33333 0 0 1 583.33398,450 133.33333,133.33333 0 0 1 450,583.33398 133.33333,133.33333 0 0 1 316.66602,450 133.33333,133.33333 0 0 1 450,316.66602 Z m 0,88.88867 A 44.444447,44.444447 0 0 0 405.55469,450 44.444447,44.444447 0 0 0 450,494.44531 44.444447,44.444447 0 0 0 494.44531,450 44.444447,44.444447 0 0 0 450,405.55469 Z"
   id="path2" />
</g>
<path
   style="fill:#00bd7e;fill-opacity:1;stroke-width:1.07143"
   d="m 587.67857,341.11881 c 0,-60.6791 0.094,-63.80828 1.875,-62.42652 7.3971,5.73885 20.76691,18.75015 27.24283,26.51232 4.24891,5.09282 8.24361,9.74182 8.8771,10.3311 3.19143,2.96873 17.4872,26.66616 23.0796,38.25799 6.44306,13.35506 15.38316,38.33714 16.69518,46.65273 L 666.16673,405 h -39.24408 -39.24408 z"
   id="path19" /><path
   style="fill:#00bd7e;fill-opacity:1;stroke-width:1.07143"
   d="m 498.75,275.35714 c 0,-22.39285 0.3713,-40.71428 0.82511,-40.71428 1.46995,0 16.67428,4.32785 23.28203,6.62714 18.41783,6.40882 41.46418,18.48275 56.54579,29.62419 l 6.13278,4.53055 v 20.32334 20.32335 H 542.14286 498.75 Z"
   id="path20" /><path
   style="fill:#00bd7e;fill-opacity:1;stroke-width:1.07143"
   d="M 574.74419,399.91071 C 561.34116,368.09463 536.74922,342.13469 506.98592,328.3832 499.42207,324.88849 498.75,324.31832 498.75,321.39613 v -3.18184 h 43.39286 43.39285 V 361.60714 405 h -4.32379 c -4.14301,0 -4.41342,-0.21278 -6.46773,-5.08929 z"
   id="path21" /><path
   style="fill:#00bd7e;fill-opacity:1;stroke-width:1.07143"
   d="M 409.82143,274.33426 V 232.5971 l 3.48214,-0.60159 c 11.74492,-2.02912 20.52546,-2.66735 36.69643,-2.66735 17.49547,0 25.377,0.64674 39.91071,3.27495 l 6.69643,1.21096 v 41.12868 41.12868 h -43.39285 -43.39286 z"
   id="path22" /><path
   style="fill:#00bd7e;fill-opacity:1;stroke-width:1.07143"
   d="m 471.69643,316.34573 c 4.86161,-0.19853 12.81696,-0.19853 17.67857,0 4.86161,0.19853 0.88393,0.36096 -8.83929,0.36096 -9.72321,0 -13.70089,-0.16243 -8.83928,-0.36096 z"
   id="path23" /><path
   style="fill:#00bd7e;fill-opacity:1;stroke-width:1.07143"
   d="m 494.36075,323.11075 c -0.25337,-0.25337 -4.07033,-1.42948 -8.48214,-2.61357 l -8.02147,-2.15291 9.375,-0.065 c 9.30305,-0.0645 9.375,-0.0444 9.375,2.61358 0,2.41641 -1.03047,3.43381 -2.24639,2.21789 z"
   id="path24" /><path
   style="fill:#00bd7e;fill-opacity:1;stroke-width:1.07143"
   d="m 320.89286,293.13888 v -22.93254 l 8.34806,-5.35506 c 11.78566,-7.56019 26.90764,-15.39008 38.79479,-20.08725 10.77337,-4.25706 28.76159,-9.72649 35.56948,-10.81512 l 4.07338,-0.65136 v 41.38694 41.38694 h -43.39286 -43.39285 z"
   id="path25" /><path
   style="fill:#00bd7e;fill-opacity:1;stroke-width:1.07143"
   d="m 320.89286,361.60714 v -43.39285 h 43.39285 c 40.71511,0 43.39286,0.11643 43.39286,1.88674 0,1.36918 -3.00772,3.18903 -10.96454,6.63421 -15.76099,6.82427 -30.41213,17.02851 -42.82515,29.82692 -13.45929,13.87716 -21.70863,26.47331 -29.09106,44.41998 -0.90902,2.20982 -2.15951,4.01786 -2.77886,4.01786 -0.76865,0 -1.1261,-13.77411 -1.1261,-43.39286 z"
   id="path26" /><path
   style="fill:#00bd7e;fill-opacity:1;stroke-width:1.07143"
   d="m 319.20351,294.10714 c 8.8e-4,-12.375 0.15684,-17.29076 0.34659,-10.92391 0.18976,6.36685 0.18904,16.49185 -0.002,22.5 -0.19062,6.00815 -0.34587,0.79891 -0.345,-11.57609 z"
   id="path27" /><path
   style="fill:#00bd7e;fill-opacity:1;stroke-width:1.07143"
   d="m 234.48758,400.90813 c 2.68829,-16.81164 17.42486,-51.5002 30.32372,-71.37932 l 7.33156,-11.29904 23.30357,-0.008 23.30357,-0.008 V 361.60714 405 h -42.45837 -42.45836 z"
   id="path28" /><path
   style="fill:#00bd7e;fill-opacity:1;stroke-width:1.07143"
   d="m 275.7784,314.14244 c 3.47232,-6.48809 22.95957,-26.1142 37.88231,-38.15224 l 5.08929,-4.10548 v 22.09336 22.09335 h -22.00198 c -20.85684,0 -21.94825,-0.1004 -20.96962,-1.92899 z"
   id="path29" /><path
   style="fill:#00bd7e;fill-opacity:1;stroke-width:1.07143"
   d="m 232.63393,490.58036 c -0.87296,-4.36481 -0.87296,-76.79591 0,-81.16072 l 0.66964,-3.34821 h 42.82982 42.82982 l -0.51004,9.375 c -0.28052,5.15625 -1.1489,15.04018 -1.92974,21.96428 -1.17864,10.45173 -1.17864,14.72685 0,25.17858 0.78084,6.9241 1.64922,16.80803 1.92974,21.96428 l 0.51004,9.375 h -42.82982 -42.82982 z"
   id="path30" /><path
   style="fill:#00bd7e;fill-opacity:1;stroke-width:1.07143"
   d="M 265.71429,571.94169 C 252.52648,551.81628 237.23298,516.26064 234.55155,499.49191 L 233.83327,495 H 276.29163 318.75 v 43.39286 43.39285 l -23.30357,-0.0168 -23.30357,-0.0168 z"
   id="path31" /><path
   style="fill:#00bd7e;fill-opacity:1;stroke-width:1.07143"
   d="m 320.89286,538.39286 c 0,-29.7333 0.35596,-43.39286 1.1308,-43.39286 0.62195,0 2.1688,2.53125 3.43746,5.625 13.22834,32.25859 40.76213,59.99722 72.69059,73.23137 7.1519,2.96442 9.52686,4.44498 9.52686,5.93908 0,1.90664 -1.82329,1.99026 -43.39286,1.99026 h -43.39285 z"
   id="path32" /><path
   style="fill:#00bd7e;fill-opacity:1;stroke-width:1.07143"
   d=""
   id="path33" /><path
   style="fill:#00bd7e;fill-opacity:1;stroke-width:1.07143"
   d="m 396.96429,664.69204 c -22.87303,-5.98454 -49.22424,-17.47488 -67.23215,-29.31631 l -8.83928,-5.81243 v -22.81737 -22.81736 h 43.39285 43.39286 v 41.25 41.25 l -2.41071,-0.0974 c -1.3259,-0.0536 -5.0625,-0.79118 -8.30357,-1.63918 z"
   id="path34" /><path
   style="fill:#00bd7e;fill-opacity:1;stroke-width:1.07143"
   d="m 310.51561,621.41817 c -10.25942,-8.46806 -22.22642,-20.26438 -29.88007,-29.45388 l -6.24652,-7.5 21.80067,-0.29054 c 11.99036,-0.1598 21.98179,-0.10941 22.20317,0.11196 0.22137,0.22138 0.27176,10.0965 0.11196,21.94471 l -0.29053,21.5422 z"
   id="path35" /><path
   style="fill:#00bd7e;fill-opacity:1;stroke-width:1.07143"
   d="m 423.21429,669.54893 c -3.53572,-0.49723 -7.99554,-1.1835 -9.91072,-1.52504 l -3.48214,-0.62099 v -41.73716 -41.73717 h 43.39286 43.39285 v 41.12868 41.12868 l -6.69643,1.21096 c -3.68303,0.66602 -10.07142,1.67535 -14.19642,2.24295 -8.99624,1.23788 -43.47574,1.17818 -52.5,-0.0909 z"
   id="path36" /><path
   style="fill:#00bd7e;fill-opacity:1;stroke-width:1.07143"
   d="m 498.75,624.72799 v -40.79942 h 43.39286 43.39285 v 20.32335 20.32334 l -5.92418,4.37645 c -9.26754,6.84634 -24.72273,15.98091 -35.85048,21.18891 -9.67149,4.52646 -34.07998,13.15148 -41.52891,14.67472 L 498.75,665.5274 Z"
   id="path37" /><path
   style="fill:#00bd7e;fill-opacity:1;stroke-width:1.07143"
   d="m 498.75,578.62297 c 0,-2.90734 0.71382,-3.50233 8.83929,-7.36774 16.70886,-7.94868 30.71862,-18.54327 43.39699,-32.81808 9.97581,-11.23195 18.042,-24.35993 24.22029,-39.41929 C 576.7288,495.30748 577.1871,495 581.19533,495 h 4.34038 v 43.39286 43.39285 H 542.14286 498.75 Z"
   id="path38" /><path
   style="fill:#00bd7e;fill-opacity:1;stroke-width:1.07143"
   d="m 587.67857,603.34548 v -19.41691 h 18.80324 c 15.93328,0 18.67246,0.23228 17.94643,1.52181 -3.45825,6.14233 -24.48903,27.76221 -34.87467,35.85157 -1.77046,1.37901 -1.875,0.37789 -1.875,-17.95647 z"
   id="path39" /><path
   style="fill:#00bd7e;fill-opacity:1;stroke-width:1.07143"
   d="M 587.67857,538.39286 V 495 h 39.24408 39.24408 l -0.69539,4.34876 c -1.34089,8.38542 -10.40522,33.81262 -16.69111,46.82177 -3.49063,7.22414 -9.62631,18.18941 -13.63485,24.36726 l -7.28824,11.23244 -20.08928,0.008 -20.08929,0.008 z"
   id="path40" /><path
   style="fill:#00bd7e;fill-opacity:1;stroke-width:1.07143"
   d="m 587.67857,450 v -43.92857 h 39.53287 39.53287 l 1.16427,6.69643 c 1.94579,11.19138 3.30429,26.49868 3.30429,37.23214 0,10.73346 -1.3585,26.04076 -3.30429,37.23214 l -1.16427,6.69643 h -39.53287 -39.53287 z"
   id="path41" /><path
   style="fill:#00bd7e;fill-opacity:1;stroke-width:1.07143"
   d="m 587.09694,450 c 0,-24.45536 0.14065,-34.45982 0.31255,-22.23214 0.17191,12.22768 0.17191,32.2366 0,44.46428 -0.1719,12.22768 -0.31255,2.22322 -0.31255,-22.23214 z"
   id="path42" /><path
   style="fill:#00bd7e;fill-opacity:1;stroke-width:1.07143"
   d="m 579.82166,484.55357 c 1.3872,-5.15625 3.09656,-15.04018 3.79857,-21.96428 1.53093,-15.10003 0.1238,-32.56336 -3.79857,-47.14286 l -2.5222,-9.375 h 4.11813 4.11812 V 450 493.92857 h -4.11812 -4.11813 z"
   id="path43" /><path
   style="fill:#00bd7e;fill-opacity:1;stroke-width:1.07143"
   d="m 409.82143,580.17857 c 0,-1.92018 0.13742,-1.92068 6.96428,-0.025 l 5.35715,1.48755 -6.16072,0.0723 c -4.79404,0.0563 -6.16071,-0.28421 -6.16071,-1.53483 z"
   id="path44" /><path
   style="fill:#00bd7e;fill-opacity:1;stroke-width:1.07143"
   d="m 471.69643,583.13144 c 4.86161,-0.19853 12.81696,-0.19853 17.67857,0 4.86161,0.19853 0.88393,0.36096 -8.83929,0.36096 -9.72321,0 -13.70089,-0.16243 -8.83928,-0.36096 z"
   id="path45" /><path
   style="fill:#00bd7e;fill-opacity:1;stroke-width:1.07143"
   d=""
   id="path46" /><path
   style="fill:#00bd7e;fill-opacity:1;stroke-width:1.07143"
   d=""
   id="path47" /><path
   style="fill:#00bd7e;fill-opacity:1;stroke-width:1.07143"
   d="m 417.05357,668.30066 -7.23214,-1.05124 v -41.66043 -41.66042 h 43.40559 43.40559 l -0.28059,40.95355 -0.28059,40.95356 -10.71429,1.83699 c -12.17791,2.08794 -55.51833,2.48641 -68.30357,0.62799 z"
   id="path48" /><path
   style="fill:#00bd7e;fill-opacity:1;stroke-width:1.07143"
   d="m 484.82143,579.75614 c 3.83036,-1.04536 8.04911,-2.2542 9.375,-2.68631 2.07803,-0.67724 2.41071,-0.40604 2.41071,1.96511 0,2.74874 -0.007,2.75073 -9.375,2.68631 l -9.375,-0.0645 z"
   id="path49" /><path
   style="fill:#00bd7e;fill-opacity:1;stroke-width:1.07143"
   d="m 417.32143,847.6542 -6.96429,-0.68991 -0.28015,-42.58929 -0.28015,-42.58929 h 43.40515 43.40515 v 42.20421 42.20421 l -4.01785,0.65074 c -5.90503,0.9564 -67.13702,1.6148 -75.26786,0.80933 z"
   id="path50" /><path
   style="fill:#00bd7e;fill-opacity:1;stroke-width:1.07143"
   d="m 498.75,803.57143 v -41.78572 h 43.4088 43.4088 l -0.2838,31.77798 -0.2838,31.77797 -9.10714,3.09436 c -19.78311,6.72177 -64.38718,16.92112 -73.9999,16.92112 H 498.75 Z"
   id="path51" /><path
   style="fill:#00bd7e;fill-opacity:1;stroke-width:1.07143"
   d="m 499.82143,758.65949 c 0.88393,-0.50501 3.77678,-1.25894 6.42857,-1.67539 17.05639,-2.67865 45.7375,-11.25269 65.24758,-19.50535 6.24776,-2.64277 11.96224,-5.05642 12.69885,-5.36367 1.03172,-0.43034 1.33928,2.66636 1.33928,13.48457 v 14.04321 l -43.66071,-0.0326 c -24.8041,-0.0185 -42.96661,-0.42915 -42.05357,-0.95079 z"
   id="path52" /><path
   style="fill:#00bd7e;fill-opacity:1;stroke-width:1.07143"
   d="m 587.67857,744.86606 v -14.77681 l 5.98154,-2.93362 c 20.57824,-10.09251 49.8337,-30.62543 68.58709,-48.13777 4.55853,-4.25687 7.46564,-6.16072 9.40719,-6.16072 h 2.8099 V 716.25 759.64286 h -43.39286 -43.39286 z"
   id="path53" /><path
   style="fill:#00bd7e;fill-opacity:1;stroke-width:1.07143"
   d="m 587.67857,792.92934 v -31.14363 h 43.39286 43.39286 v 8.99698 8.99698 l -9.91072,6.35329 c -12.4275,7.96668 -24.29605,14.72374 -36.69643,20.8922 -9.69582,4.82311 -33.2761,15.026 -37.76785,16.34169 l -2.41072,0.70612 z"
   id="path54" /><path
   style="fill:#00bd7e;fill-opacity:1;stroke-width:1.07143"
   d="m 687.85714,761.78571 -11.78571,-0.64784 12.05357,-0.21179 c 7.46262,-0.13113 12.05357,0.19629 12.05357,0.85963 0,0.58929 -0.12053,0.97613 -0.26786,0.85964 -0.14732,-0.11649 -5.57142,-0.50332 -12.05357,-0.85964 z"
   id="path55" /><path
   style="fill:#00bd7e;fill-opacity:1;stroke-width:1.07143"
   d="M 676.60714,716.25 V 672.85714 H 720 763.39286 v 12.07263 12.07262 l -10.55925,12.30238 c -10.64265,12.39954 -34.15288,35.91333 -45.27055,45.27742 l -6.00837,5.06067 h -12.47378 -12.47377 z"
   id="path56" /><path
   style="fill:#00bd7e;fill-opacity:1;stroke-width:1.07143"
   d="m 676.60714,769.87467 v -8.08896 l 5.08929,0.0939 c 2.79911,0.0516 7.37522,0.41323 10.16915,0.80357 l 5.07986,0.70971 -8.68512,6.42857 c -12.66798,9.37662 -11.65318,9.37198 -11.65318,0.0532 z"
   id="path57" /><path
   style="fill:#00bd7e;fill-opacity:1;stroke-width:1.07143"
   d="m 676.60714,667.90715 c 0,-1.97619 2.63701,-5.86134 8.90846,-13.125 16.20799,-18.77225 27.42876,-35.01824 39.87194,-57.72858 l 7.19129,-13.125 h 15.40701 15.40702 v 43.39286 43.39286 H 720 676.60714 Z"
   id="path58" /><path
   style="fill:#00bd7e;fill-opacity:1;stroke-width:1.07143"
   d="m 765.53571,627.32143 v -43.39286 h 30 c 16.5,0 30,0.20208 30,0.44906 0,0.24698 -2.58335,6.87644 -5.74079,14.73214 -7.28005,18.11275 -17.87807,39.25014 -28.78347,57.40762 l -8.52666,14.1969 h -8.47454 -8.47454 z"
   id="path59" /><path
   style="fill:#00bd7e;fill-opacity:1;stroke-width:1.07143"
   d="M 765.53571,538.39286 V 495 h 40.32653 40.32654 l -0.73914,7.23214 c -1.69279,16.56329 -8.66583,47.71419 -15.2296,68.03572 l -3.72022,11.51785 h -30.48205 -30.48206 z"
   id="path60" /><path
   style="fill:#00bd7e;fill-opacity:1;stroke-width:1.07143"
   d="m 733.39286,581.34988 c 0,-0.23972 1.41144,-3.58167 3.13653,-7.42657 7.7303,-17.22939 18.45871,-53.24175 20.95846,-70.35188 1.08368,-7.41748 1.59989,-8.57143 3.83435,-8.57143 2.01251,0 2.07066,1.21864 2.07066,43.39286 v 43.39285 h -15 c -8.25,0 -15,-0.19612 -15,-0.43583 z"
   id="path61" /><path
   style="fill:#00bd7e;fill-opacity:1;stroke-width:1.07143"
   d="m 765.53571,450 v -43.92857 h 40.61119 40.61118 l 0.90667,11.51786 c 0.49867,6.33482 0.90668,20.91964 0.90668,32.41071 0,11.49107 -0.40801,26.07589 -0.90668,32.41071 l -0.90667,11.51786 H 806.1469 765.53571 Z"
   id="path62" /><path
   style="fill:#00bd7e;fill-opacity:1;stroke-width:1.07143"
   d="m 765.53571,361.60714 v -43.39285 h 30.48206 30.48205 l 3.71786,11.51785 c 4.30745,13.34436 7.36029,25.00845 10.3834,39.67224 2.33708,11.33619 5.29178,30.01079 5.29178,33.44571 0,2.11404 -0.67035,2.14991 -40.17857,2.14991 h -40.17858 z"
   id="path63" /><path
   style="fill:#00bd7e;fill-opacity:1;stroke-width:1.07143"
   d="m 765.53571,272.67857 v -43.39286 h 8.50546 8.50546 l 8.51786,14.19643 c 10.82542,18.04235 21.40431,39.18072 28.73043,57.40809 3.15744,7.8557 5.74079,14.48516 5.74079,14.73214 0,0.24698 -13.5,0.44906 -30,0.44906 h -30 z"
   id="path64" /><path
   style="fill:#00bd7e;fill-opacity:1;stroke-width:1.07143"
   d="m 758.7219,403.125 c -0.29131,-1.03125 -0.84663,-4.04464 -1.23405,-6.69643 -2.49291,-17.06332 -13.22606,-53.20019 -20.79411,-70.01059 -1.81549,-4.03261 -3.30088,-7.52814 -3.30088,-7.76786 0,-0.23971 6.75,-0.43583 15,-0.43583 h 15 v 43.39285 c 0,42.17422 -0.0582,43.39286 -2.07066,43.39286 -1.13886,0 -2.309,-0.84375 -2.6003,-1.875 z"
   id="path65" /><path
   style="fill:#00bd7e;fill-opacity:1;stroke-width:1.07143"
   d="m 726.96429,306.21635 c -9.55075,-19.20925 -24.11073,-40.77908 -40.44643,-59.9192 -6.80539,-7.9737 -9.91072,-12.45801 -9.91072,-14.31178 v -2.69966 H 720 763.39286 v 43.39286 43.39286 l -15.80357,-0.0789 -15.80358,-0.0789 z"
   id="path66" /><path
   style="fill:#00bd7e;fill-opacity:1;stroke-width:1.07143"
   d="m 676.60714,183.75 v -43.39286 h 12.47377 12.47378 l 6.00837,5.06067 c 11.11767,9.36409 34.6279,32.87788 45.27055,45.27742 l 10.55925,12.30238 v 12.07262 12.07263 H 720 676.60714 Z"
   id="path67" /><path
   style="fill:#00bd7e;fill-opacity:1;stroke-width:1.07143"
   d="m 765.55954,216.69643 0.0238,-10.44643 2.11579,2.67857 c 1.16368,1.47322 4.55682,6.17411 7.5403,10.44643 l 5.42451,7.76786 h -7.56412 -7.56413 z"
   id="path68" /><path
   style="fill:#00bd7e;fill-opacity:1;stroke-width:1.07143"
   d="m 665.28974,223.8202 c -4.32508,-4.56667 -20.66653,-18.25038 -30.43053,-25.48136 -9.78336,-7.24533 -33.90909,-22.18223 -41.59746,-25.75413 l -5.58318,-2.59386 V 155.174 140.35714 h 43.39286 43.39286 V 183.75 227.14286 h -3.01384 c -1.97976,0 -4.09355,-1.14003 -6.16071,-3.32266 z"
   id="path69" /><path
   style="fill:#00bd7e;fill-opacity:1;stroke-width:1.07143"
   d="M 587.67857,107.07066 V 75.927026 l 2.41072,0.706126 c 4.49175,1.315686 28.07203,11.518578 37.76785,16.341683 12.40038,6.168461 24.26893,12.925525 36.69643,20.892205 l 9.91072,6.35329 v 8.99698 8.99698 h -43.39286 -43.39286 z"
   id="path70" /><path
   style="fill:#00bd7e;fill-opacity:1;stroke-width:1.07143"
   d="m 676.60714,130.11534 c 0,-6.18799 0.31601,-7.91176 1.33929,-7.3056 1.37154,0.81245 16.09498,11.68124 19.00738,14.03119 1.29731,1.04676 -0.55697,1.31195 -9.36452,1.33928 l -10.98215,0.0341 z"
   id="path71" /><path
   style="fill:#00bd7e;fill-opacity:1;stroke-width:1.07143"
   d="M 498.75,96.041246 V 53.868205 l 9.375,1.460531 c 22.52325,3.508895 49.8244,10.11088 69.375,16.77631 l 7.5,2.556993 0.2838,31.776121 0.2838,31.77613 H 542.1588 498.75 Z"
   id="path72" /><path
   style="fill:#00bd7e;fill-opacity:1;stroke-width:1.07143"
   d="m 577.16695,164.941 c -17.64671,-8.12839 -43.03695,-16.27527 -64.59714,-20.72705 -7.15306,-1.47697 -13.26912,-2.94897 -13.59125,-3.27111 -0.32214,-0.32213 19.02144,-0.5857 42.98573,-0.5857 h 43.57142 v 13.92857 c 0,7.66072 -0.3616,13.89285 -0.80357,13.84919 -0.44196,-0.0437 -3.8463,-1.48092 -7.56519,-3.1939 z"
   id="path73" /><path
   style="fill:#00bd7e;fill-opacity:1;stroke-width:1.07143"
   d="m 759.46576,490.98214 c 0.33463,-1.62053 1.20514,-11.50446 1.93446,-21.96428 1.05377,-15.11296 1.05377,-22.92276 0,-38.03572 -0.72932,-10.45982 -1.59983,-20.34375 -1.93446,-21.96428 -0.51167,-2.47788 -0.2478,-2.94643 1.65934,-2.94643 h 2.26776 V 450 493.92857 h -2.26776 c -1.90714,0 -2.17101,-0.46855 -1.65934,-2.94643 z"
   id="path74" /><path
   style="fill:#00bd7e;fill-opacity:1;stroke-width:1.07143"
   d="M 409.82143,95.466904 V 52.719523 l 14.73214,-0.795805 c 14.48253,-0.78232 60.1616,0.07037 68.03572,1.270017 l 4.01785,0.612135 v 42.204208 42.204212 h -43.39285 -43.39286 z"
   id="path75" /><path
   style="fill:#00bd7e;fill-opacity:1;stroke-width:1.07143"
   d="m 321.14523,105.317 0.28334,-32.897279 9.49198,-3.023496 c 19.60819,-6.245837 51.94477,-13.332532 70.06159,-15.35429 l 6.69643,-0.747291 v 42.459821 42.459825 h -43.40834 -43.40834 z"
   id="path76" /><path
   style="fill:#00bd7e;fill-opacity:1;stroke-width:1.07143"
   d="m 320.89286,152.67857 v -12.32143 l 43.125,0.0877 43.125,0.0877 -10.71429,1.91908 c -21.75554,3.89672 -46.97959,11.21025 -65.27281,18.92535 -4.72489,1.9927 -8.96695,3.6231 -9.4268,3.6231 -0.45986,0 -0.8361,-5.54464 -0.8361,-12.32143 z"
   id="path77" /><path
   style="fill:#00bd7e;fill-opacity:1;stroke-width:1.07143"
   d="m 232.19589,126.84517 0.30411,-11.36911 12.32143,-7.44281 c 15.31565,-9.251487 42.57681,-22.703728 59.15955,-29.192764 6.90382,-2.701553 13.05114,-4.911915 13.66071,-4.911915 0.73883,0 1.10831,10.715513 1.10831,32.142859 v 32.14286 h -43.42911 -43.4291 z"
   id="path78" /><path
   style="fill:#00bd7e;fill-opacity:1;stroke-width:1.07143"
   d="M 231.96429,183.31499 V 140.35714 H 275.35714 318.75 v 13.15791 13.15791 l -8.30357,4.09496 c -24.46194,12.06358 -48.1541,28.24301 -69.64286,47.55927 l -8.83928,7.94564 z"
   id="path79" /><path
   style="fill:#00bd7e;fill-opacity:1;stroke-width:1.07143"
   d="m 143.03571,211.20058 v -15.94227 l 7.90669,-8.96844 c 8.98432,-10.1908 32.50861,-33.37944 41.49454,-40.9025 l 6.00837,-5.03023 h 15.68806 15.68806 V 183.75 227.14286 h -43.39286 -43.39286 z"
   id="path80" /><path
   style="fill:#00bd7e;fill-opacity:1;stroke-width:1.07143"
   d="m 201.96429,137.74749 c 0,-0.48483 19.74007,-14.9499 24.91071,-18.254 l 2.94643,-1.8828 v 10.3018 10.3018 h -13.92857 c -7.66072,0 -13.92857,-0.21006 -13.92857,-0.4668 z"
   id="path81" /><path
   style="fill:#00bd7e;fill-opacity:1;stroke-width:1.07143"
   d="m 124.74258,219.375 c 2.97359,-4.27232 7.82387,-10.86821 10.7784,-14.65753 l 5.37188,-6.88967 v 14.65753 14.65753 h -10.77841 -10.77841 z"
   id="path82" /><path
   style="fill:#00bd7e;fill-opacity:1;stroke-width:1.07143"
   d="m 143.03571,272.67857 v -43.39286 h 42.98693 42.98692 l -7.14449,7.57354 c -10.28715,10.90492 -23.37474,27.58965 -32.29903,41.17646 -8.21878,12.51269 -20.81604,34.79762 -20.81604,36.82418 0,0.83379 -4.00876,1.21154 -12.85714,1.21154 h -12.85715 z"
   id="path83" /><path
   style="fill:#00bd7e;fill-opacity:1;stroke-width:1.07143"
   d="m 74.464286,315.47522 c 0,-0.32791 2.475773,-6.7163 5.501718,-14.19642 8.783488,-21.71275 21.116026,-45.69124 34.134216,-66.36809 l 3.54151,-5.625 h 11.62557 11.62556 v 43.39286 43.39286 h -33.21429 c -18.267856,0 -33.214284,-0.26829 -33.214284,-0.59621 z"
   id="path84" /><path
   style="fill:#00bd7e;fill-opacity:1;stroke-width:1.07143"
   d="m 143.07983,354.375 -0.0441,-36.16071 h 11.78572 c 6.48214,0 11.78571,0.15617 11.78571,0.34706 0,0.19088 -1.73312,4.34637 -3.85138,9.23442 -5.82193,13.43456 -10.94371,28.84311 -15.51254,46.66852 l -4.11927,16.07142 z"
   id="path85" /><path
   style="fill:#00bd7e;fill-opacity:1;stroke-width:1.07143"
   d="m 54.107143,401.85138 c 0,-10.25244 8.805342,-50.88607 15.544392,-71.73203 l 3.848649,-11.90506 h 33.696336 33.69634 V 361.60714 405 H 97.5 54.107143 Z"
   id="path86" /><path
   style="fill:#00bd7e;fill-opacity:1;stroke-width:1.07143"
   d="m 54.107143,450 v -43.92857 h 43.487033 43.487034 l -0.63985,4.01786 c -3.39964,21.34772 -3.39964,58.4737 0,79.82142 l 0.63985,4.01786 H 97.594176 54.107143 Z"
   id="path87" /><path
   style="fill:#00bd7e;fill-opacity:1;stroke-width:1.07143"
   d="M 69.651535,569.88065 C 62.912485,549.03469 54.107143,508.40106 54.107143,498.14862 V 495 H 97.5 140.89286 v 43.39286 43.39285 H 107.19652 73.500184 Z"
   id="path88" /><path
   style="fill:#00bd7e;fill-opacity:1;stroke-width:1.07143"
   d="m 143.07983,545.625 0.0441,-36.16071 4.13617,16.07142 c 4.49076,17.44925 10.8418,36.46059 16.05062,48.04631 1.81302,4.03261 3.2964,7.52814 3.2964,7.76786 0,0.23971 -5.30357,0.43583 -11.78571,0.43583 h -11.78572 z"
   id="path89" /><path
   style="fill:#00bd7e;fill-opacity:1;stroke-width:1.07143"
   d="m 111.35369,660.80357 c -9.04887,-14.50239 -24.0937,-44.17767 -30.930569,-61.00921 -3.27736,-8.06846 -5.958835,-14.939 -5.958835,-15.26786 0,-0.32886 14.946428,-0.59793 33.214284,-0.59793 h 33.21429 v 43.39286 43.39286 h -11.67765 -11.67766 z"
   id="path90" /><path
   style="fill:#00bd7e;fill-opacity:1;stroke-width:1.07143"
   d="m 143.03571,627.32143 v -43.39286 h 12.78495 c 12.32484,0 12.81158,0.0868 13.52516,2.41072 1.40804,4.58567 12.49527,23.8921 21.38154,37.23214 10.06065,15.10303 19.2803,26.84709 30.54881,38.9133 l 7.6855,8.22956 h -42.96298 -42.96298 z"
   id="path91" /><path
   style="fill:#00bd7e;fill-opacity:1;stroke-width:1.07143"
   d="m 190.71429,753.09219 c -10.70884,-9.30016 -30.4902,-28.89606 -39.75479,-39.38206 l -7.92379,-8.96844 v -15.94227 -15.94228 h 43.39286 43.39286 V 716.25 759.64286 l -15.80357,-0.0186 -15.80357,-0.0186 z"
   id="path92" /><path
   style="fill:#00bd7e;fill-opacity:1;stroke-width:1.07143"
   d="m 132.21747,690.78505 c -4.47682,-6.02999 -9.21054,-12.53059 -10.51938,-14.44576 l -2.37972,-3.48215 h 10.78724 10.78725 v 14.46429 c 0,7.95536 -0.12054,14.45595 -0.26786,14.44576 -0.14732,-0.0102 -3.93071,-4.95215 -8.40753,-10.98214 z"
   id="path93" /><path
   style="fill:#00bd7e;fill-opacity:1;stroke-width:1.07143"
   d="m 231.96429,716.7397 v -42.90315 l 10.21225,9.0923 c 19.51667,17.37634 42.88227,33.36965 65.58647,44.8927 l 10.97729,5.57131 0.005,13.125 0.005,13.125 h -43.39286 -43.39285 z"
   id="path94" /><path
   style="fill:#00bd7e;fill-opacity:1;stroke-width:1.07143"
   d="m 302.67857,820.65242 c -17.29253,-6.89726 -42.25739,-19.27778 -57.85714,-28.69238 l -12.32143,-7.4361 -0.30411,-11.36911 -0.3041,-11.36912 h 43.4291 43.42911 v 32.14286 c 0,25.02058 -0.29676,32.13431 -1.33929,32.10428 -0.7366,-0.0212 -7.36607,-2.44241 -14.73214,-5.38043 z"
   id="path95" /><path
   style="fill:#00bd7e;fill-opacity:1;stroke-width:1.07143"
   d="m 217.90204,774.15953 c -6.11398,-4.39083 -12.32168,-8.96046 -13.7949,-10.15474 l -2.67857,-2.17143 14.19643,-0.0238 14.19643,-0.0238 v 10.17858 c 0,5.59821 -0.18069,10.17857 -0.40154,10.17857 -0.22084,0 -5.40388,-3.5925 -11.51785,-7.98333 z"
   id="path96" /><path
   style="fill:#00bd7e;fill-opacity:1;stroke-width:1.07143"
   d="m 398.57143,845.69646 c -17.93745,-2.29383 -49.8059,-9.39444 -67.5,-15.03967 l -9.64286,-3.07651 -0.28334,-32.89728 -0.28334,-32.89729 h 43.40834 43.40834 v 42.32143 42.32143 l -2.94643,-0.16053 c -1.62053,-0.0883 -4.39285,-0.34551 -6.16071,-0.57158 z"
   id="path97" /><path
   style="fill:#00bd7e;fill-opacity:1;stroke-width:1.07143"
   d="m 320.89286,747.32143 c 0,-6.77679 0.37624,-12.32143 0.8361,-12.32143 0.45985,0 4.6786,1.61817 9.375,3.59594 18.64466,7.85171 43.84633,15.17197 65.32461,18.97465 l 10.71429,1.89694 -43.125,0.0877 -43.125,0.0877 z"
   id="path98" /><path
   style="fill:#00bd7e;fill-opacity:1;stroke-width:1.07143"
   d="m 436.87888,491.35171 c -9.87065,-3.21195 -20.32625,-12.00067 -24.86819,-20.90361 -1.9238,-3.77096 -2.18804,-6.27772 -2.17921,-20.67327 0.01,-16.15188 0.0542,-16.45895 3.15329,-21.86223 3.9142,-6.82442 11.62494,-13.77786 19.33666,-17.43752 5.24226,-2.48776 7.19404,-2.79651 17.67857,-2.79651 10.46207,0 12.44754,0.31252 17.67857,2.78267 9.14639,4.31901 16.46401,11.61633 21.1437,21.08504 3.81873,7.72668 4.03487,8.71522 4.03487,18.45372 0,9.7385 -0.21614,10.72704 -4.03487,18.45372 -4.65546,9.41968 -11.49793,16.24322 -20.90206,20.84423 -5.12484,2.50735 -7.64369,3.01032 -16.27736,3.25032 -6.52464,0.18136 -11.85773,-0.25086 -14.76397,-1.19656 z"
   id="path99" /><path
   style="fill:#00bd7e;fill-opacity:1;stroke-width:1.11386"
   d="m 769.39975,672.5178 c 2.29734,-0.24031 6.05662,-0.24031 8.35396,0 2.29734,0.2403 0.4177,0.43692 -4.17698,0.43692 -4.59468,0 -6.47432,-0.19662 -4.17698,-0.43692 z"
   id="path3" /><path
   style="fill:#00bd7e;fill-opacity:1;stroke-width:1.11386"
   d="m 765.7797,682.93342 v -9.60421 h 7.29906 7.29907 l -5.88804,8.43316 c -8.66448,12.40974 -8.71009,12.41587 -8.71009,1.17105 z"
   id="path4" /></svg>
